<svg xmlns="http://www.w3.org/2000/svg" viewBox="0 0 90 50" width="90mm" height="50mm" role="img" aria-label="Webify Bharat business card — front"><defs><pattern id="d" width="3" height="3" patternUnits="userSpaceOnUse"><circle cx="1.5" cy="1.5" r="0.25" fill="#E6007E" fill-opacity="0.12"/></pattern><linearGradient id="holi" x1="0" y1="0" x2="1" y2="0"><stop offset="0.00" stop-color="#E6007E"/><stop offset="0.50" stop-color="#FF6B00"/><stop offset="1.00" stop-color="#FFB400"/></linearGradient></defs><rect width="90" height="50" fill="#FFF0F6"/><rect width="90" height="50" fill="url(#d)"/><g transform="translate(23.36 13)"><g transform="translate(0.00 0.00) scale(0.06818)"><g transform="translate(0.0 0.0) scale(1.0000)"><path fill="#026c6c" fill-rule="evenodd" d="M78.9 203.8C76.1 198.1 70.9 188.1 67.5 181.5C61.8 170.5 51.5 150.3 18.1 84.7C11.4 71.6 6.0 60.2 6.0 59.4C6.0 58.2 9.9 58.0 30.6 58.0C44.9 58.0 55.9 58.4 57.0 59.0C58.0 59.5 61.2 64.6 64.0 70.2C66.9 75.9 77.3 96.5 87.2 116.0C97.1 135.5 105.5 151.9 106.0 152.3C106.4 152.8 108.2 150.7 110.1 147.8C118.8 133.8 121.0 130.0 121.0 128.9C121.0 127.8 117.7 121.1 106.3 99.0C95.8 78.8 86.0 59.3 86.0 58.6C86.0 58.3 97.8 58.0 112.3 58.0C131.8 58.0 139.0 58.3 140.2 59.3C141.1 59.9 144.7 66.1 148.2 73.0C151.7 79.9 155.1 86.4 155.8 87.5C157.1 89.7 169.9 114.2 181.0 135.5C185.0 143.2 188.6 149.9 189.0 150.3C189.4 150.8 192.4 146.6 195.6 141.1L201.5 131.0 L221.5 131.2L241.5 131.5 L247.0 134.5C254.7 138.7 260.6 145.0 264.3 152.8C267.3 159.1 267.5 160.2 267.5 170.5C267.5 181.2 267.4 181.7 263.8 188.6C257.3 201.2 246.8 208.9 232.1 212.1C229.5 212.6 213.9 212.9 196.1 212.8L164.7 212.5 L162.1 207.5C160.6 204.8 155.7 195.3 151.1 186.5C146.5 177.7 140.2 165.8 137.2 160.0C134.2 154.2 131.5 149.2 131.1 148.8C130.7 148.3 128.4 151.0 126.0 154.8C105.1 186.8 86.5 214.0 85.4 214.0C84.6 214.0 81.7 209.4 78.9 203.8Z M204.0 127.4C203.2 127.1 199.8 121.7 196.5 115.4C189.7 102.1 183.3 90.0 173.7 71.8C170.0 64.8 167.0 58.8 167.0 58.5C167.0 58.2 182.0 58.0 200.2 58.2C231.9 58.5 233.8 58.6 239.0 60.8C246.9 63.9 253.7 69.6 257.9 76.4C261.4 82.2 261.5 82.5 261.5 92.9C261.5 101.9 261.2 104.1 259.3 107.5C256.0 113.7 250.7 119.2 244.7 122.8C239.9 125.7 237.8 126.3 229.3 127.1C219.3 127.9 206.7 128.1 204.0 127.4Z"/><path fill="#f56f36" fill-rule="evenodd" d="M20.1 48.6C11.6 45.5 5.1 36.6 5.0 27.9C5.0 17.7 11.3 8.5 20.1 6.0C32.1 2.5 44.5 8.6 48.5 19.9C50.6 26.0 50.4 30.7 47.6 36.6C42.8 47.0 30.5 52.4 20.1 48.6Z"/></g><path fill="#1B1030" d="M317.469 104.0 300.932 36.84H316.503L329.475 93.903L326.255 91.764H334.581L330.97 93.903L340.998 39.324H353.533L340.423 104.0ZM357.512 104.0 343.344 39.324H356.5L368.115 93.903L364.55 91.764H372.554L369.587 93.903L380.903 36.84H395.577L380.903 104.0ZM425.454 105.794Q419.014 105.794 414.115 103.586Q409.216 101.378 405.927 97.6405Q402.63800000000003 93.903 400.93600000000004 89.257Q399.234 84.611 399.234 79.712V77.918Q399.234 72.858 400.93600000000004 68.17750000000001Q402.63800000000003 63.497 405.89250000000004 59.828500000000005Q409.147 56.160000000000004 413.9425 53.998000000000005Q418.738 51.836 424.902 51.836Q433.044 51.836 438.62149999999997 55.4585Q444.199 59.081 447.10850000000005 64.95750000000001Q450.01800000000003 70.834 450.01800000000003 77.688V82.679H405.444V74.261H441.163L436.31 78.194Q436.31 73.64 435.0335 70.44300000000001Q433.757 67.24600000000001 431.23850000000004 65.54400000000001Q428.72 63.842 424.902 63.842Q421.107 63.842 418.41600000000005 65.57849999999999Q415.725 67.315 414.3335 70.66149999999999Q412.942 74.008 412.942 78.884Q412.942 83.369 414.2645 86.727Q415.587 90.08500000000001 418.347 91.9365Q421.107 93.788 425.454 93.788Q429.525 93.788 432.124 92.247Q434.723 90.706 435.597 88.337H449.121Q448.04 93.466 444.8315 97.422Q441.623 101.378 436.7125 103.586Q431.802 105.794 425.454 105.794ZM488.98 105.656Q482.77 105.656 478.101 103.057Q473.432 100.458 470.77549999999997 95.4555Q468.11899999999997 90.453 467.912 83.277H469.614V104.0H457.93V36.84H472.69599999999997V70.949L469.154 75.388Q469.453 67.798 472.09799999999996 62.6Q474.743 57.402 479.32 54.757000000000005Q483.897 52.112 489.78499999999997 52.112Q494.96 52.112 499.14599999999996 54.021Q503.332 55.93 506.2875 59.379999999999995Q509.243 62.83 510.83000000000004 67.4875Q512.417 72.145 512.417 77.66499999999999V79.735Q512.417 85.255 510.8185 89.9585Q509.21999999999997 94.662 506.138 98.20400000000001Q503.056 101.746 498.73199999999997 103.701Q494.408 105.656 488.98 105.656ZM485.139 93.374Q488.865 93.374 491.6825 91.4995Q494.5 89.625 496.07550000000003 86.3015Q497.651 82.97800000000001 497.651 78.7Q497.651 74.35300000000001 496.06399999999996 71.14450000000001Q494.477 67.936 491.69399999999996 66.165Q488.911 64.394 485.139 64.394Q481.758 64.394 478.84849999999994 65.9235Q475.93899999999996 67.453 474.13349999999997 70.38550000000001Q472.328 73.318 472.328 77.458V80.862Q472.328 84.818 474.21399999999994 87.6125Q476.09999999999997 90.407 479.044 91.8905Q481.988 93.374 485.139 93.374ZM523.158 104.0V53.63H537.924V104.0ZM516.442 64.486V53.63H537.924V64.486ZM528.9195 48.616Q524.768 48.616 522.79 46.4655Q520.812 44.315 520.812 40.957Q520.812 37.599000000000004 522.7982142857143 35.4485Q524.7844285714285 33.298 528.885 33.298Q533.071 33.298 535.0145 35.4485Q536.958 37.599000000000004 536.958 40.957Q536.958 44.315 535.0145 46.4655Q533.071 48.616 528.9195 48.616ZM550.8040000000001 104.0V53.147Q550.8040000000001 44.407000000000004 555.749 40.1635Q560.6940000000001 35.92 570.3770000000001 35.92H576.7940000000001V47.006H569.7330000000001Q567.226 47.006 565.869 48.3745Q564.5120000000001 49.743 564.5120000000001 52.227000000000004V104.0ZM544.8240000000001 65.36V54.596000000000004H577.576V65.36ZM582.4060000000001 123.964V111.498H592.94Q595.309 111.498 596.9535 110.8885Q598.598 110.279 599.6445 108.88749999999999Q600.691 107.496 601.266 105.081L613.686 53.63H627.716L613.617 108.071Q612.145 113.982 609.5115000000001 117.47800000000001Q606.878 120.974 602.508 122.469Q598.138 123.964 591.422 123.964ZM598.23 102.896V91.396H608.902V102.896ZM592.2040000000001 102.896 576.702 53.63H591.514L606.142 102.896Z"/><path fill="#E6007E" d="M319.378 200.506V188.73H335.179Q339.365 188.73 341.4925 186.51049999999998Q343.62 184.291 343.62 180.243Q343.62 176.172 341.504 174.01Q339.388 171.848 335.179 171.848H319.378V162.786H334.443Q341.366 162.786 346.8055 164.45350000000002Q352.245 166.121 355.3615 169.9275Q358.478 173.734 358.478 180.128V181.416Q358.478 187.442 355.741 191.70850000000002Q353.004 195.975 347.645 198.2405Q342.286 200.506 334.443 200.506ZM306.544 200.506V132.334H321.218V200.506ZM319.378 169.502V160.44H332.695Q336.95 160.44 338.905 158.255Q340.86 156.07 340.86 152.321Q340.86 148.48000000000002 338.905 146.29500000000002Q336.95 144.11 332.695 144.11H319.378V132.334H331.752Q343.344 132.334 349.531 137.187Q355.718 142.04 355.718 151.05599999999998V152.413Q355.718 158.715 352.5785 162.48700000000002Q349.439 166.25900000000001 344.034 167.8805Q338.629 169.502 331.752 169.502ZM367.494 200.0V132.84H382.26V171.572H380.052Q380.052 163.959 381.9725 158.70350000000002Q383.89300000000003 153.448 387.67650000000003 150.734Q391.46000000000004 148.02 397.141 148.02H397.785Q406.20300000000003 148.02 410.6075 153.96550000000002Q415.012 159.911 415.012 171.319V200.0H400.246V170.376Q400.246 166.25900000000001 397.8195 163.7405Q395.39300000000003 161.222 391.437 161.222Q387.343 161.222 384.80150000000003 163.89Q382.26 166.558 382.26 170.905V200.0ZM456.11299999999994 200.0V185.142H453.67499999999995V168.95Q453.67499999999995 165.063 451.81199999999995 163.14249999999998Q449.94899999999996 161.222 445.924 161.222Q443.9 161.222 440.58799999999997 161.31400000000002Q437.27599999999995 161.406 433.75699999999995 161.567Q430.23799999999994 161.728 427.38599999999997 161.912V149.492Q429.54799999999994 149.308 432.38849999999996 149.13549999999998Q435.229 148.963 438.27649999999994 148.8825Q441.32399999999996 148.802 443.94599999999997 148.802Q451.69699999999995 148.802 456.9984999999999 150.9755Q462.29999999999995 153.149 465.0485 157.611Q467.79699999999997 162.073 467.79699999999997 169.111V200.0ZM440.013 201.288Q434.631 201.288 430.52549999999997 199.3675Q426.41999999999996 197.447 424.11999999999995 193.8245Q421.81999999999994 190.202 421.81999999999994 185.142Q421.81999999999994 179.553 424.6835 176.02249999999998Q427.54699999999997 172.492 432.67599999999993 170.80149999999998Q437.80499999999995 169.111 444.56699999999995 169.111H455.28499999999997V177.253H444.47499999999997Q440.58799999999997 177.253 438.495 179.1735Q436.402 181.094 436.402 184.245Q436.402 187.327 438.495 189.2245Q440.58799999999997 191.122 444.47499999999997 191.122Q446.91299999999995 191.122 448.9024999999999 190.248Q450.89199999999994 189.374 452.19149999999996 187.2465Q453.491 185.119 453.67499999999995 181.37L457.17099999999994 185.004Q456.71099999999996 190.248 454.64099999999996 193.85899999999998Q452.57099999999997 197.47 448.93699999999995 199.37900000000002Q445.30299999999994 201.288 440.013 201.288ZM478.44599999999997 200.0V149.63H490.12999999999994V171.25H489.9Q489.9 160.555 494.4309999999999 154.7475Q498.96199999999993 148.94 507.60999999999996 148.94H509.542V161.68200000000002H505.86199999999997Q499.81299999999993 161.68200000000002 496.51249999999993 164.93650000000002Q493.21199999999993 168.191 493.21199999999993 174.309V200.0ZM545.813 200.0V185.142H543.375V168.95Q543.375 165.063 541.512 163.14249999999998Q539.649 161.222 535.624 161.222Q533.6 161.222 530.288 161.31400000000002Q526.976 161.406 523.457 161.567Q519.938 161.728 517.086 161.912V149.492Q519.248 149.308 522.0885000000001 149.13549999999998Q524.929 148.963 527.9765 148.8825Q531.024 148.802 533.646 148.802Q541.397 148.802 546.6985 150.9755Q552.0 153.149 554.7484999999999 157.611Q557.497 162.073 557.497 169.111V200.0ZM529.713 201.288Q524.331 201.288 520.2255 199.3675Q516.12 197.447 513.8199999999999 193.8245Q511.52 190.202 511.52 185.142Q511.52 179.553 514.3834999999999 176.02249999999998Q517.247 172.492 522.376 170.80149999999998Q527.505 169.111 534.267 169.111H544.985V177.253H534.175Q530.288 177.253 528.1949999999999 179.1735Q526.102 181.094 526.102 184.245Q526.102 187.327 528.1949999999999 189.2245Q530.288 191.122 534.175 191.122Q536.613 191.122 538.6025 190.248Q540.592 189.374 541.8915 187.2465Q543.191 185.119 543.375 181.37L546.871 185.004Q546.4110000000001 190.248 544.341 193.85899999999998Q542.271 197.47 538.637 199.37900000000002Q535.003 201.288 529.713 201.288ZM591.077 200.69Q583.487 200.69 578.795 198.781Q574.103 196.872 571.9065 192.3985Q569.71 187.925 569.71 180.289L569.779 135.96800000000002H583.487L583.418 180.91Q583.418 184.452 585.3040000000001 186.338Q587.19 188.224 590.732 188.224H598.138V200.69ZM562.074 160.394V149.63H598.138V160.394Z"/></g></g><path fill="#1B1030" d="M18.086400000000005 37.0V34.984H18.871800000000004Q19.052400000000002 34.984 19.180500000000002 35.0582Q19.308600000000002 35.1324 19.3765 35.2535Q19.4444 35.3746 19.4444 35.5146Q19.4444 35.6791 19.36005 35.80195Q19.275700000000004 35.9248 19.133600000000005 35.971000000000004L19.130800000000004 35.9024Q19.325400000000002 35.9542 19.433200000000003 36.09315Q19.541000000000004 36.2321 19.541000000000004 36.4232Q19.541000000000004 36.5996 19.468550000000004 36.728750000000005Q19.396100000000004 36.8579 19.261350000000004 36.92895Q19.126600000000003 37.0 18.941800000000004 37.0ZM18.338400000000004 36.762H18.894200000000005Q19.005500000000005 36.762 19.094050000000003 36.721050000000005Q19.182600000000004 36.6801 19.233700000000006 36.604150000000004Q19.284800000000004 36.5282 19.284800000000004 36.4218Q19.284800000000004 36.3203 19.238950000000003 36.23875Q19.193100000000005 36.1572 19.111200000000004 36.108900000000006Q19.029300000000003 36.0606 18.922200000000004 36.0606H18.338400000000004ZM18.338400000000004 35.8254H18.869000000000003Q18.957900000000002 35.8254 19.030350000000002 35.7869Q19.102800000000002 35.7484 19.145500000000002 35.678749999999994Q19.188200000000002 35.6091 19.188200000000002 35.5146Q19.188200000000002 35.3844 19.099650000000004 35.3018Q19.011100000000003 35.2192 18.869000000000003 35.2192H18.338400000000004ZM20.365600000000004 37.0392Q20.219300000000004 37.0392 20.115350000000007 36.993Q20.011400000000005 36.9468 19.942800000000005 36.87015Q19.874200000000005 36.7935 19.835000000000004 36.69935Q19.795800000000003 36.6052 19.779700000000005 36.50755Q19.763600000000004 36.4099 19.763600000000004 36.3238V35.488H20.015600000000006V36.245400000000004Q20.015600000000006 36.3518 20.034850000000006 36.45155Q20.054100000000005 36.5513 20.101000000000006 36.63075Q20.147900000000003 36.7102 20.227000000000004 36.7564Q20.306100000000004 36.8026 20.425800000000006 36.8026Q20.519600000000004 36.8026 20.596250000000005 36.77075Q20.672900000000006 36.7389 20.727500000000006 36.67485Q20.782100000000003 36.6108 20.811850000000003 36.513149999999996Q20.841600000000003 36.4155 20.841600000000003 36.2846L21.005400000000005 36.335Q21.005400000000005 36.5541 20.926300000000005 36.71195Q20.847200000000004 36.8698 20.703700000000005 36.954499999999996Q20.560200000000005 37.0392 20.365600000000004 37.0392ZM20.869600000000005 37.0V36.5954H20.841600000000003V35.488H21.092200000000005V37.0ZM21.484200000000005 35.2206V34.963H21.733400000000003V35.2206ZM21.484200000000005 37.0V35.488H21.733400000000003V37.0ZM22.1534 37.0V34.942H22.4026V37.0ZM23.638800000000003 37.0Q23.503700000000006 37.0273 23.373150000000003 37.0224Q23.242600000000003 37.0175 23.140050000000002 36.9692Q23.037500000000005 36.9209 22.985000000000003 36.818Q22.940200000000004 36.7291 22.936700000000005 36.6374Q22.933200000000006 36.5457 22.933200000000006 36.4288V35.068H23.182400000000005V36.4176Q23.182400000000005 36.5107 23.184500000000007 36.57615Q23.186600000000006 36.6416 23.213200000000004 36.6892Q23.263600000000004 36.7795 23.373500000000003 36.79455Q23.483400000000003 36.8096 23.638800000000003 36.7858ZM22.626600000000003 35.6938V35.488H23.638800000000003V35.6938ZM24.595000000000002 37.0V35.4054Q24.595000000000002 35.3473 24.600250000000003 35.28605Q24.605500000000003 35.2248 24.62545 35.166700000000006Q24.645400000000002 35.1086 24.690200000000004 35.0596Q24.742000000000004 35.0029 24.803600000000003 34.978049999999996Q24.8652 34.9532 24.928900000000002 34.9476Q24.992600000000003 34.942 25.050000000000004 34.942H25.2418V35.1492H25.064000000000004Q24.953400000000002 35.1492 24.8988 35.203450000000004Q24.844200000000004 35.2577 24.844200000000004 35.3662V37.0ZM24.338800000000003 35.6938V35.488H25.2418V35.6938ZM26.081800000000005 37.042Q25.855700000000006 37.042 25.692600000000006 36.939800000000005Q25.529500000000006 36.8376 25.441650000000003 36.65735Q25.353800000000003 36.4771 25.353800000000003 36.2426Q25.353800000000003 36.0053 25.443400000000004 35.82575Q25.533000000000005 35.6462 25.696450000000006 35.546099999999996Q25.859900000000003 35.446 26.081800000000005 35.446Q26.308600000000006 35.446 26.472050000000003 35.54785Q26.635500000000004 35.6497 26.723350000000003 35.82925Q26.811200000000007 36.0088 26.811200000000007 36.2426Q26.811200000000007 36.4799 26.722650000000005 36.659800000000004Q26.634100000000004 36.8397 26.4703 36.94085Q26.306500000000003 37.042 26.081800000000005 37.042ZM26.081800000000005 36.8054Q26.316300000000005 36.8054 26.431450000000005 36.6486Q26.546600000000005 36.4918 26.546600000000005 36.2426Q26.546600000000005 35.9871 26.430400000000006 35.83485Q26.314200000000007 35.6826 26.081800000000005 35.6826Q25.923600000000004 35.6826 25.821050000000007 35.754000000000005Q25.718500000000006 35.8254 25.668450000000007 35.9514Q25.618400000000005 36.0774 25.618400000000005 36.2426Q25.618400000000005 36.4981 25.736000000000004 36.65175Q25.853600000000004 36.8054 26.081800000000005 36.8054ZM27.091200000000004 37.0V35.488H27.313800000000004V35.8534L27.277400000000004 35.8058Q27.304000000000002 35.7358 27.346700000000002 35.677Q27.389400000000002 35.6182 27.442600000000002 35.5804Q27.500700000000002 35.533500000000004 27.575250000000004 35.508300000000006Q27.649800000000003 35.4831 27.726800000000004 35.4782Q27.803800000000003 35.4733 27.871000000000002 35.488V35.7218Q27.792600000000004 35.7015 27.69845 35.7113Q27.604300000000002 35.7211 27.5252 35.7792Q27.451700000000002 35.8317 27.412150000000004 35.90555Q27.372600000000002 35.9794 27.357200000000002 36.0655Q27.341800000000003 36.1516 27.341800000000003 36.2412V37.0ZM28.851 37.672 29.1436 36.8768 29.1478 37.112 28.487000000000002 35.488H28.7488L29.2668 36.7942H29.1772L29.663 35.488H29.9164L29.0932 37.672ZM30.7634 37.042Q30.537300000000002 37.042 30.374200000000002 36.939800000000005Q30.211100000000002 36.8376 30.12325 36.65735Q30.0354 36.4771 30.0354 36.2426Q30.0354 36.0053 30.125 35.82575Q30.2146 35.6462 30.37805 35.546099999999996Q30.5415 35.446 30.7634 35.446Q30.9902 35.446 31.15365 35.54785Q31.3171 35.6497 31.40495 35.82925Q31.492800000000003 36.0088 31.492800000000003 36.2426Q31.492800000000003 36.4799 31.40425 36.659800000000004Q31.3157 36.8397 31.151899999999998 36.94085Q30.9881 37.042 30.7634 37.042ZM30.7634 36.8054Q30.9979 36.8054 31.11305 36.6486Q31.2282 36.4918 31.2282 36.2426Q31.2282 35.9871 31.112000000000002 35.83485Q30.995800000000003 35.6826 30.7634 35.6826Q30.6052 35.6826 30.502650000000003 35.754000000000005Q30.400100000000002 35.8254 30.350050000000003 35.9514Q30.3 36.0774 30.3 36.2426Q30.3 36.4981 30.4176 36.65175Q30.5352 36.8054 30.7634 36.8054ZM32.3468 37.0392Q32.200500000000005 37.0392 32.09655000000001 36.993Q31.992600000000003 36.9468 31.924000000000003 36.87015Q31.855400000000003 36.7935 31.816200000000002 36.69935Q31.777 36.6052 31.7609 36.50755Q31.7448 36.4099 31.7448 36.3238V35.488H31.996800000000004V36.245400000000004Q31.996800000000004 36.3518 32.01605 36.45155Q32.0353 36.5513 32.0822 36.63075Q32.1291 36.7102 32.208200000000005 36.7564Q32.2873 36.8026 32.407000000000004 36.8026Q32.500800000000005 36.8026 32.57745 36.77075Q32.6541 36.7389 32.7087 36.67485Q32.7633 36.6108 32.79305 36.513149999999996Q32.8228 36.4155 32.8228 36.2846L32.9866 36.335Q32.9866 36.5541 32.9075 36.71195Q32.8284 36.8698 32.6849 36.954499999999996Q32.5414 37.0392 32.3468 37.0392ZM32.8508 37.0V36.5954H32.8228V35.488H33.0734V37.0ZM33.4374 37.0V35.488H33.66V35.8534L33.623599999999996 35.8058Q33.6502 35.7358 33.692899999999995 35.677Q33.7356 35.6182 33.7888 35.5804Q33.8469 35.533500000000004 33.92144999999999 35.508300000000006Q33.995999999999995 35.4831 34.07299999999999 35.4782Q34.15 35.4733 34.2172 35.488V35.7218Q34.138799999999996 35.7015 34.04465 35.7113Q33.9505 35.7211 33.8714 35.7792Q33.7979 35.8317 33.75835 35.90555Q33.7188 35.9794 33.7034 36.0655Q33.687999999999995 36.1516 33.687999999999995 36.2412V37.0ZM35.6816 37.042Q35.4688 37.042 35.3232 36.9363Q35.177600000000005 36.8306 35.102700000000006 36.649649999999994Q35.027800000000006 36.4687 35.027800000000006 36.2426Q35.027800000000006 36.0144 35.102700000000006 35.83415Q35.177600000000005 35.6539 35.323550000000004 35.549949999999995Q35.469500000000004 35.446 35.68300000000001 35.446Q35.893 35.446 36.04455 35.55065Q36.1961 35.6553 36.27765 35.83555Q36.3592 36.0158 36.3592 36.2426Q36.3592 36.4694 36.27765 36.65035Q36.1961 36.8313 36.04455 36.93665Q35.893 37.042 35.6816 37.042ZM34.985800000000005 37.0V34.984H35.2364V35.887H35.208400000000005V37.0ZM35.650800000000004 36.8138Q35.7999 36.8138 35.898250000000004 36.7382Q35.9966 36.6626 36.0456 36.5331Q36.0946 36.4036 36.0946 36.2426Q36.0946 36.083 36.045950000000005 35.9542Q35.9973 35.8254 35.89755 35.7498Q35.7978 35.6742 35.643800000000006 35.6742Q35.496100000000006 35.6742 35.3995 35.7463Q35.3029 35.8184 35.25565 35.94685Q35.208400000000005 36.0753 35.208400000000005 36.2426Q35.208400000000005 36.4085 35.255300000000005 36.53765Q35.302200000000006 36.6668 35.400200000000005 36.740300000000005Q35.498200000000004 36.8138 35.650800000000004 36.8138ZM37.21320000000001 37.0392Q37.066900000000004 37.0392 36.962950000000006 36.993Q36.859 36.9468 36.790400000000005 36.87015Q36.7218 36.7935 36.68260000000001 36.69935Q36.64340000000001 36.6052 36.627300000000005 36.50755Q36.611200000000004 36.4099 36.611200000000004 36.3238V35.488H36.863200000000006V36.245400000000004Q36.863200000000006 36.3518 36.882450000000006 36.45155Q36.901700000000005 36.5513 36.948600000000006 36.63075Q36.99550000000001 36.7102 37.074600000000004 36.7564Q37.15370000000001 36.8026 37.2734 36.8026Q37.367200000000004 36.8026 37.443850000000005 36.77075Q37.520500000000006 36.7389 37.575100000000006 36.67485Q37.62970000000001 36.6108 37.65945000000001 36.513149999999996Q37.68920000000001 36.4155 37.68920000000001 36.2846L37.853 36.335Q37.853 36.5541 37.773900000000005 36.71195Q37.69480000000001 36.8698 37.551300000000005 36.954499999999996Q37.4078 37.0392 37.21320000000001 37.0392ZM37.717200000000005 37.0V36.5954H37.68920000000001V35.488H37.939800000000005V37.0ZM38.87500000000001 37.0406Q38.6041 37.0406 38.43155 36.9223Q38.25900000000001 36.804 38.219800000000006 36.5912L38.4746 36.5506Q38.5054 36.6738 38.616 36.7459Q38.726600000000005 36.818 38.89040000000001 36.818Q39.045100000000005 36.818 39.13365 36.75395Q39.22220000000001 36.6899 39.22220000000001 36.5786Q39.22220000000001 36.5149 39.192800000000005 36.474999999999994Q39.1634 36.4351 39.07170000000001 36.400099999999995Q38.980000000000004 36.3651 38.7952 36.3154Q38.595000000000006 36.2622 38.479850000000006 36.20515Q38.364700000000006 36.1481 38.316050000000004 36.0725Q38.2674 35.9969 38.2674 35.8884Q38.2674 35.7554 38.3402 35.65565Q38.413000000000004 35.5559 38.54355 35.50095Q38.6741 35.446 38.848400000000005 35.446Q39.0206 35.446 39.15605000000001 35.50095Q39.291500000000006 35.5559 39.37480000000001 35.65565Q39.4581 35.7554 39.4742 35.8884L39.21940000000001 35.9346Q39.20120000000001 35.8135 39.10215000000001 35.74315Q39.0031 35.6728 38.848400000000005 35.6686Q38.70140000000001 35.6637 38.609700000000004 35.7211Q38.51800000000001 35.7785 38.51800000000001 35.8758Q38.51800000000001 35.9311 38.551950000000005 35.96995Q38.5859 36.0088 38.67935 36.043800000000005Q38.772800000000004 36.0788 38.9506 36.1236Q39.1501 36.1747 39.265600000000006 36.233850000000004Q39.3811 36.293 39.43045000000001 36.373850000000004Q39.479800000000004 36.4547 39.479800000000004 36.5716Q39.479800000000004 36.7907 39.3188 36.91565Q39.1578 37.0406 38.87500000000001 37.0406ZM39.7892 35.2206V34.963H40.0384V35.2206ZM39.7892 37.0V35.488H40.0384V37.0ZM41.507000000000005 37.0V36.2426Q41.507000000000005 36.1355 41.487750000000005 36.036100000000005Q41.468500000000006 35.9367 41.42160000000001 35.85725Q41.37470000000001 35.7778 41.29560000000001 35.7316Q41.21650000000001 35.6854 41.09680000000001 35.6854Q41.00300000000001 35.6854 40.926350000000006 35.71725Q40.849700000000006 35.7491 40.795100000000005 35.81315Q40.74050000000001 35.8772 40.710750000000004 35.974500000000006Q40.681000000000004 36.0718 40.681000000000004 36.2034L40.51720000000001 36.153Q40.51720000000001 35.9339 40.596300000000014 35.77605Q40.67540000000001 35.6182 40.81890000000001 35.533500000000004Q40.96240000000001 35.4488 41.15700000000001 35.4488Q41.30330000000001 35.4488 41.407250000000005 35.495000000000005Q41.51120000000001 35.5412 41.579800000000006 35.617850000000004Q41.64840000000001 35.6945 41.68760000000001 35.788650000000004Q41.72680000000001 35.8828 41.742900000000006 35.980450000000005Q41.75900000000001 36.0781 41.75900000000001 36.1642V37.0ZM40.42900000000001 37.0V35.488H40.653000000000006V35.8926H40.681000000000004V37.0ZM42.7502 37.042Q42.5269 37.042 42.361000000000004 36.943650000000005Q42.195100000000004 36.8453 42.10305 36.66785Q42.011 36.4904 42.011 36.2538Q42.011 36.006 42.10165000000001 35.8247Q42.1923 35.6434 42.35575 35.5447Q42.5192 35.446 42.739000000000004 35.446Q42.9665 35.446 43.1268 35.551Q43.2871 35.656 43.36795 35.8506Q43.4488 36.0452 43.4369 36.314H43.1856V36.2244Q43.181400000000004 35.9458 43.0722 35.807900000000004Q42.963 35.67 42.7474 35.67Q42.5157 35.67 42.39565 35.8184Q42.275600000000004 35.9668 42.275600000000004 36.244Q42.275600000000004 36.5114 42.39565 36.6584Q42.5157 36.8054 42.739000000000004 36.8054Q42.8888 36.8054 42.9994 36.7368Q43.11 36.6682 43.173 36.5394L43.4124 36.622Q43.3235 36.8222 43.14675 36.932100000000005Q42.97 37.042 42.7502 37.042ZM42.1916 36.314V36.1138H43.3088V36.314ZM44.2916 37.0406Q44.0207 37.0406 43.848150000000004 36.9223Q43.6756 36.804 43.6364 36.5912L43.8912 36.5506Q43.922 36.6738 44.0326 36.7459Q44.1432 36.818 44.307 36.818Q44.4617 36.818 44.550250000000005 36.75395Q44.6388 36.6899 44.6388 36.5786Q44.6388 36.5149 44.6094 36.474999999999994Q44.58 36.4351 44.488299999999995 36.400099999999995Q44.3966 36.3651 44.2118 36.3154Q44.0116 36.2622 43.89645 36.20515Q43.7813 36.1481 43.73265 36.0725Q43.684 35.9969 43.684 35.8884Q43.684 35.7554 43.7568 35.65565Q43.8296 35.5559 43.96015 35.50095Q44.0907 35.446 44.265 35.446Q44.4372 35.446 44.572649999999996 35.50095Q44.7081 35.5559 44.791399999999996 35.65565Q44.8747 35.7554 44.8908 35.8884L44.636 35.9346Q44.6178 35.8135 44.51875 35.74315Q44.4197 35.6728 44.265 35.6686Q44.118 35.6637 44.026300000000006 35.7211Q43.9346 35.7785 43.9346 35.8758Q43.9346 35.9311 43.96855 35.96995Q44.0025 36.0088 44.09595 36.043800000000005Q44.1894 36.0788 44.3672 36.1236Q44.5667 36.1747 44.682199999999995 36.233850000000004Q44.7977 36.293 44.847049999999996 36.373850000000004Q44.8964 36.4547 44.8964 36.5716Q44.8964 36.7907 44.7354 36.91565Q44.5744 37.0406 44.2916 37.0406ZM45.74900000000001 37.0406Q45.478100000000005 37.0406 45.30555000000001 36.9223Q45.13300000000001 36.804 45.09380000000001 36.5912L45.348600000000005 36.5506Q45.379400000000004 36.6738 45.49000000000001 36.7459Q45.60060000000001 36.818 45.76440000000001 36.818Q45.91910000000001 36.818 46.00765000000001 36.75395Q46.09620000000001 36.6899 46.09620000000001 36.5786Q46.09620000000001 36.5149 46.06680000000001 36.474999999999994Q46.037400000000005 36.4351 45.9457 36.400099999999995Q45.854000000000006 36.3651 45.669200000000004 36.3154Q45.46900000000001 36.2622 45.35385000000001 36.20515Q45.23870000000001 36.1481 45.19005000000001 36.0725Q45.141400000000004 35.9969 45.141400000000004 35.8884Q45.141400000000004 35.7554 45.214200000000005 35.65565Q45.287000000000006 35.5559 45.417550000000006 35.50095Q45.548100000000005 35.446 45.72240000000001 35.446Q45.894600000000004 35.446 46.03005 35.50095Q46.16550000000001 35.5559 46.2488 35.65565Q46.332100000000004 35.7554 46.348200000000006 35.8884L46.09340000000001 35.9346Q46.07520000000001 35.8135 45.976150000000004 35.74315Q45.877100000000006 35.6728 45.72240000000001 35.6686Q45.57540000000001 35.6637 45.48370000000001 35.7211Q45.39200000000001 35.7785 45.39200000000001 35.8758Q45.39200000000001 35.9311 45.42595000000001 35.96995Q45.459900000000005 36.0088 45.55335000000001 36.043800000000005Q45.646800000000006 36.0788 45.824600000000004 36.1236Q46.024100000000004 36.1747 46.1396 36.233850000000004Q46.255100000000006 36.293 46.30445 36.373850000000004Q46.35380000000001 36.4547 46.35380000000001 36.5716Q46.35380000000001 36.7907 46.192800000000005 36.91565Q46.031800000000004 37.0406 45.74900000000001 37.0406ZM46.68 37.0V36.7256H46.9544V37.0ZM47.8952 37.0V34.984H48.147200000000005L49.198600000000006 36.559V34.984H49.4506V37.0H49.198600000000006L48.147200000000005 35.4236V37.0ZM50.458600000000004 37.042Q50.2325 37.042 50.0694 36.939800000000005Q49.9063 36.8376 49.81845 36.65735Q49.7306 36.4771 49.7306 36.2426Q49.7306 36.0053 49.8202 35.82575Q49.909800000000004 35.6462 50.07325 35.546099999999996Q50.2367 35.446 50.458600000000004 35.446Q50.6854 35.446 50.84885 35.54785Q51.0123 35.6497 51.10015 35.82925Q51.188 36.0088 51.188 36.2426Q51.188 36.4799 51.099450000000004 36.659800000000004Q51.0109 36.8397 50.8471 36.94085Q50.6833 37.042 50.458600000000004 37.042ZM50.458600000000004 36.8054Q50.6931 36.8054 50.80825 36.6486Q50.9234 36.4918 50.9234 36.2426Q50.9234 35.9871 50.8072 35.83485Q50.691 35.6826 50.458600000000004 35.6826Q50.3004 35.6826 50.19785 35.754000000000005Q50.0953 35.8254 50.04525 35.9514Q49.995200000000004 36.0774 49.995200000000004 36.2426Q49.995200000000004 36.4981 50.11280000000001 36.65175Q50.2304 36.8054 50.458600000000004 36.8054ZM52.312200000000004 37.0Q52.1771 37.0273 52.04655 37.0224Q51.916000000000004 37.0175 51.81345 36.9692Q51.7109 36.9209 51.65840000000001 36.818Q51.613600000000005 36.7291 51.6101 36.6374Q51.60660000000001 36.5457 51.60660000000001 36.4288V35.068H51.8558V36.4176Q51.8558 36.5107 51.8579 36.57615Q51.86000000000001 36.6416 51.88660000000001 36.6892Q51.937000000000005 36.7795 52.04690000000001 36.79455Q52.156800000000004 36.8096 52.312200000000004 36.7858ZM51.300000000000004 35.6938V35.488H52.312200000000004V35.6938ZM53.26840000000001 37.0V35.4054Q53.26840000000001 35.3473 53.27365 35.28605Q53.27890000000001 35.2248 53.29885 35.166700000000006Q53.3188 35.1086 53.363600000000005 35.0596Q53.415400000000005 35.0029 53.477000000000004 34.978049999999996Q53.5386 34.9532 53.6023 34.9476Q53.666000000000004 34.942 53.723400000000005 34.942H53.915200000000006V35.1492H53.7374Q53.6268 35.1492 53.5722 35.203450000000004Q53.5176 35.2577 53.5176 35.3662V37.0ZM53.01220000000001 35.6938V35.488H53.915200000000006V35.6938ZM54.7552 37.042Q54.5291 37.042 54.366 36.939800000000005Q54.2029 36.8376 54.11505 36.65735Q54.0272 36.4771 54.0272 36.2426Q54.0272 36.0053 54.1168 35.82575Q54.2064 35.6462 54.36985 35.546099999999996Q54.5333 35.446 54.7552 35.446Q54.982 35.446 55.14545 35.54785Q55.3089 35.6497 55.39675 35.82925Q55.4846 36.0088 55.4846 36.2426Q55.4846 36.4799 55.39605 36.659800000000004Q55.3075 36.8397 55.143699999999995 36.94085Q54.9799 37.042 54.7552 37.042ZM54.7552 36.8054Q54.9897 36.8054 55.10485 36.6486Q55.22 36.4918 55.22 36.2426Q55.22 35.9871 55.1038 35.83485Q54.9876 35.6826 54.7552 35.6826Q54.597 35.6826 54.49445 35.754000000000005Q54.3919 35.8254 54.34185 35.9514Q54.2918 36.0774 54.2918 36.2426Q54.2918 36.4981 54.409400000000005 36.65175Q54.527 36.8054 54.7552 36.8054ZM55.7646 37.0V35.488H55.9872V35.8534L55.9508 35.8058Q55.9774 35.7358 56.0201 35.677Q56.0628 35.6182 56.11600000000001 35.5804Q56.1741 35.533500000000004 56.24865 35.508300000000006Q56.3232 35.4831 56.4002 35.4782Q56.4772 35.4733 56.5444 35.488V35.7218Q56.466 35.7015 56.37185 35.7113Q56.2777 35.7211 56.198600000000006 35.7792Q56.1251 35.8317 56.085550000000005 35.90555Q56.04600000000001 35.9794 56.03060000000001 36.0655Q56.0152 36.1516 56.0152 36.2412V37.0ZM57.96959999999999 37.042Q57.74629999999999 37.042 57.5804 36.943650000000005Q57.4145 36.8453 57.322449999999996 36.66785Q57.230399999999996 36.4904 57.230399999999996 36.2538Q57.230399999999996 36.006 57.32105 35.8247Q57.411699999999996 35.6434 57.575149999999994 35.5447Q57.73859999999999 35.446 57.9584 35.446Q58.1859 35.446 58.346199999999996 35.551Q58.506499999999996 35.656 58.587349999999994 35.8506Q58.66819999999999 36.0452 58.656299999999995 36.314H58.404999999999994V36.2244Q58.4008 35.9458 58.291599999999995 35.807900000000004Q58.182399999999994 35.67 57.96679999999999 35.67Q57.735099999999996 35.67 57.61505 35.8184Q57.495 35.9668 57.495 36.244Q57.495 36.5114 57.61505 36.6584Q57.735099999999996 36.8054 57.9584 36.8054Q58.1082 36.8054 58.218799999999995 36.7368Q58.32939999999999 36.6682 58.392399999999995 36.5394L58.63179999999999 36.622Q58.542899999999996 36.8222 58.36614999999999 36.932100000000005Q58.18939999999999 37.042 57.96959999999999 37.042ZM57.410999999999994 36.314V36.1138H58.52819999999999V36.314ZM59.34859999999999 37.0 58.79979999999999 35.488H59.05179999999999L59.47599999999999 36.6822L59.898799999999994 35.488H60.15219999999999L59.60339999999999 37.0ZM61.0314 37.042Q60.808099999999996 37.042 60.6422 36.943650000000005Q60.4763 36.8453 60.38425 36.66785Q60.2922 36.4904 60.2922 36.2538Q60.2922 36.006 60.382850000000005 35.8247Q60.4735 35.6434 60.63695 35.5447Q60.800399999999996 35.446 61.0202 35.446Q61.2477 35.446 61.408 35.551Q61.5683 35.656 61.64915 35.8506Q61.73 36.0452 61.7181 36.314H61.4668V36.2244Q61.4626 35.9458 61.3534 35.807900000000004Q61.2442 35.67 61.0286 35.67Q60.7969 35.67 60.67685 35.8184Q60.5568 35.9668 60.5568 36.244Q60.5568 36.5114 60.67685 36.6584Q60.7969 36.8054 61.0202 36.8054Q61.17 36.8054 61.2806 36.7368Q61.3912 36.6682 61.4542 36.5394L61.693599999999996 36.622Q61.6047 36.8222 61.427949999999996 36.932100000000005Q61.2512 37.042 61.0314 37.042ZM60.4728 36.314V36.1138H61.589999999999996V36.314ZM62.001599999999996 37.0V35.488H62.224199999999996V35.8534L62.187799999999996 35.8058Q62.2144 35.7358 62.257099999999994 35.677Q62.2998 35.6182 62.353 35.5804Q62.4111 35.533500000000004 62.48564999999999 35.508300000000006Q62.560199999999995 35.4831 62.63719999999999 35.4782Q62.7142 35.4733 62.7814 35.488V35.7218Q62.702999999999996 35.7015 62.60885 35.7113Q62.5147 35.7211 62.4356 35.7792Q62.3621 35.8317 62.32255 35.90555Q62.283 35.9794 62.2676 36.0655Q62.252199999999995 36.1516 62.252199999999995 36.2412V37.0ZM63.22939999999999 37.672 63.52199999999999 36.8768 63.526199999999996 37.112 62.865399999999994 35.488H63.127199999999995L63.645199999999996 36.7942H63.55559999999999L64.0414 35.488H64.2948L63.471599999999995 37.672ZM65.1418 37.042Q64.9157 37.042 64.7526 36.939800000000005Q64.5895 36.8376 64.50165 36.65735Q64.4138 36.4771 64.4138 36.2426Q64.4138 36.0053 64.5034 35.82575Q64.593 35.6462 64.75645 35.546099999999996Q64.9199 35.446 65.1418 35.446Q65.3686 35.446 65.53205 35.54785Q65.6955 35.6497 65.78335 35.82925Q65.8712 36.0088 65.8712 36.2426Q65.8712 36.4799 65.78265 36.659800000000004Q65.6941 36.8397 65.53030000000001 36.94085Q65.3665 37.042 65.1418 37.042ZM65.1418 36.8054Q65.3763 36.8054 65.49145 36.6486Q65.6066 36.4918 65.6066 36.2426Q65.6066 35.9871 65.4904 35.83485Q65.3742 35.6826 65.1418 35.6826Q64.9836 35.6826 64.88104999999999 35.754000000000005Q64.7785 35.8254 64.72845 35.9514Q64.6784 36.0774 64.6784 36.2426Q64.6784 36.4981 64.79599999999999 36.65175Q64.9136 36.8054 65.1418 36.8054ZM67.22779999999999 37.0V36.2426Q67.22779999999999 36.1355 67.20854999999999 36.036100000000005Q67.18929999999999 35.9367 67.14239999999998 35.85725Q67.09549999999999 35.7778 67.01639999999999 35.7316Q66.9373 35.6854 66.81759999999998 35.6854Q66.7238 35.6854 66.64715 35.71725Q66.5705 35.7491 66.51589999999999 35.81315Q66.4613 35.8772 66.43154999999999 35.974500000000006Q66.4018 36.0718 66.4018 36.2034L66.23799999999999 36.153Q66.23799999999999 35.9339 66.31709999999998 35.77605Q66.3962 35.6182 66.53969999999998 35.533500000000004Q66.68319999999999 35.4488 66.8778 35.4488Q67.02409999999999 35.4488 67.12804999999999 35.495000000000005Q67.23199999999999 35.5412 67.30059999999999 35.617850000000004Q67.36919999999999 35.6945 67.4084 35.788650000000004Q67.4476 35.8828 67.46369999999999 35.980450000000005Q67.4798 36.0781 67.4798 36.1642V37.0ZM66.14979999999998 37.0V35.488H66.37379999999999V35.8926H66.4018V37.0ZM68.471 37.042Q68.2477 37.042 68.08179999999999 36.943650000000005Q67.9159 36.8453 67.82385 36.66785Q67.73179999999999 36.4904 67.73179999999999 36.2538Q67.73179999999999 36.006 67.82245 35.8247Q67.9131 35.6434 68.07655 35.5447Q68.24 35.446 68.4598 35.446Q68.6873 35.446 68.8476 35.551Q69.00789999999999 35.656 69.08875 35.8506Q69.1696 36.0452 69.15769999999999 36.314H68.90639999999999V36.2244Q68.9022 35.9458 68.79299999999999 35.807900000000004Q68.68379999999999 35.67 68.4682 35.67Q68.23649999999999 35.67 68.11644999999999 35.8184Q67.9964 35.9668 67.9964 36.244Q67.9964 36.5114 68.11644999999999 36.6584Q68.23649999999999 36.8054 68.4598 36.8054Q68.6096 36.8054 68.7202 36.7368Q68.8308 36.6682 68.8938 36.5394L69.1332 36.622Q69.04429999999999 36.8222 68.86755 36.932100000000005Q68.6908 37.042 68.471 37.042ZM67.91239999999999 36.314V36.1138H69.0296V36.314ZM69.4552 35.614000000000004 69.4706 35.497800000000005Q69.5287 35.502 69.5581 35.47540000000001Q69.5875 35.448800000000006 69.5959 35.40260000000001Q69.6043 35.3564 69.5994 35.3004H69.4552V34.984H69.7296V35.342400000000005Q69.7296 35.4894 69.6575 35.56360000000001Q69.58539999999999 35.637800000000006 69.4552 35.614000000000004ZM70.6634 37.0406Q70.3925 37.0406 70.21995 36.9223Q70.0474 36.804 70.00819999999999 36.5912L70.26299999999999 36.5506Q70.29379999999999 36.6738 70.40439999999998 36.7459Q70.51499999999999 36.818 70.6788 36.818Q70.83349999999999 36.818 70.92204999999998 36.75395Q71.0106 36.6899 71.0106 36.5786Q71.0106 36.5149 70.9812 36.474999999999994Q70.95179999999999 36.4351 70.86009999999999 36.400099999999995Q70.7684 36.3651 70.58359999999999 36.3154Q70.3834 36.2622 70.26825 36.20515Q70.1531 36.1481 70.10444999999999 36.0725Q70.05579999999999 35.9969 70.05579999999999 35.8884Q70.05579999999999 35.7554 70.12859999999999 35.65565Q70.20139999999999 35.5559 70.33194999999999 35.50095Q70.46249999999999 35.446 70.6368 35.446Q70.809 35.446 70.94444999999999 35.50095Q71.0799 35.5559 71.16319999999999 35.65565Q71.2465 35.7554 71.26259999999999 35.8884L71.00779999999999 35.9346Q70.9896 35.8135 70.89054999999999 35.74315Q70.7915 35.6728 70.6368 35.6686Q70.48979999999999 35.6637 70.3981 35.7211Q70.3064 35.7785 70.3064 35.8758Q70.3064 35.9311 70.34035 35.96995Q70.37429999999999 36.0088 70.46775 36.043800000000005Q70.5612 36.0788 70.73899999999999 36.1236Q70.93849999999999 36.1747 71.054 36.233850000000004Q71.1695 36.293 71.21885 36.373850000000004Q71.2682 36.4547 71.2682 36.5716Q71.2682 36.7907 71.10719999999999 36.91565Q70.94619999999999 37.0406 70.6634 37.0406ZM71.5944 37.0V36.7256H71.8688V37.0Z"/><rect y="48.4" width="90" height="1.6" fill="url(#holi)"/></svg>
